<svg width="56" height="56" viewBox="0 0 56 56" fill="none" xmlns="http://www.w3.org/2000/svg">
<path d="M0 27.9829C0 12.5284 12.5284 0 27.9829 0V0C43.4374 0 55.9658 12.5284 55.9658 27.9829V27.9829C55.9658 43.4374 43.4374 55.9658 27.9829 55.9658V55.9658C12.5284 55.9658 0 43.4374 0 27.9829V27.9829Z" fill="url(#paint0_linear_227_350)" fill-opacity="0.31"/>
<g transform="translate(17.5, 17.5) scale(0.84)">
<path d="M23.9583 22.9167H5.20833C4.37953 22.9167 3.58468 22.5874 2.99862 22.0014C2.41257 21.4153 2.08333 20.6205 2.08333 19.7917V1.04167C2.08333 0.765399 1.97359 0.500448 1.77824 0.305097C1.58289 0.109747 1.31793 0 1.04167 0C0.765399 0 0.500448 0.109747 0.305097 0.305097C0.109747 0.500448 0 0.765399 0 1.04167L0 19.7917C0.00165402 21.1725 0.550919 22.4963 1.52731 23.4727C2.50371 24.4491 3.82751 24.9983 5.20833 25H23.9583C24.2346 25 24.4996 24.8903 24.6949 24.6949C24.8903 24.4996 25 24.2346 25 23.9583C25 23.6821 24.8903 23.4171 24.6949 23.2218C24.4996 23.0264 24.2346 22.9167 23.9583 22.9167Z" fill="white"/>
<path d="M6.24967 20.8335C6.52594 20.8335 6.79089 20.7238 6.98624 20.5284C7.18159 20.333 7.29134 20.0681 7.29134 19.7918V12.5002C7.29134 12.2239 7.18159 11.9589 6.98624 11.7636C6.79089 11.5682 6.52594 11.4585 6.24967 11.4585C5.97341 11.4585 5.70846 11.5682 5.51311 11.7636C5.31775 11.9589 5.20801 12.2239 5.20801 12.5002V19.7918C5.20801 20.0681 5.31775 20.333 5.51311 20.5284C5.70846 20.7238 5.97341 20.8335 6.24967 20.8335Z" fill="white"/>
<path d="M10.417 10.4167V19.7917C10.417 20.0679 10.5267 20.3329 10.7221 20.5282C10.9174 20.7236 11.1824 20.8333 11.4587 20.8333C11.7349 20.8333 11.9999 20.7236 12.1952 20.5282C12.3906 20.3329 12.5003 20.0679 12.5003 19.7917V10.4167C12.5003 10.1404 12.3906 9.87545 12.1952 9.6801C11.9999 9.48475 11.7349 9.375 11.4587 9.375C11.1824 9.375 10.9174 9.48475 10.7221 9.6801C10.5267 9.87545 10.417 10.1404 10.417 10.4167Z" fill="white"/>
<path d="M15.625 13.5417V19.7917C15.625 20.0679 15.7347 20.3329 15.9301 20.5282C16.1254 20.7236 16.3904 20.8333 16.6667 20.8333C16.9429 20.8333 17.2079 20.7236 17.4032 20.5282C17.5986 20.3329 17.7083 20.0679 17.7083 19.7917V13.5417C17.7083 13.2654 17.5986 13.0004 17.4032 12.8051C17.2079 12.6097 16.9429 12.5 16.6667 12.5C16.3904 12.5 16.1254 12.6097 15.9301 12.8051C15.7347 13.0004 15.625 13.2654 15.625 13.5417Z" fill="white"/>
<path d="M20.833 9.37516V19.7918C20.833 20.0681 20.9428 20.333 21.1381 20.5284C21.3335 20.7238 21.5984 20.8335 21.8747 20.8335C22.1509 20.8335 22.4159 20.7238 22.6112 20.5284C22.8066 20.333 22.9163 20.0681 22.9163 19.7918V9.37516C22.9163 9.0989 22.8066 8.83394 22.6112 8.63859C22.4159 8.44324 22.1509 8.3335 21.8747 8.3335C21.5984 8.3335 21.3335 8.44324 21.1381 8.63859C20.9428 8.83394 20.833 9.0989 20.833 9.37516Z" fill="white"/>
<path d="M6.24945 9.37441C6.5257 9.37435 6.79061 9.26456 6.98591 9.0692L10.7213 5.33378C10.9199 5.14464 11.1836 5.03914 11.4578 5.03914C11.732 5.03914 11.9957 5.14464 12.1942 5.33378L14.4567 7.59628C15.0428 8.18213 15.8375 8.51124 16.6661 8.51124C17.4948 8.51124 18.2895 8.18213 18.8755 7.59628L24.6942 1.77753C24.884 1.58107 24.989 1.31794 24.9866 1.04482C24.9842 0.771701 24.8747 0.510438 24.6816 0.317304C24.4884 0.124171 24.2272 0.0146198 23.954 0.0122464C23.6809 0.00987306 23.4178 0.114867 23.2213 0.304615L17.4026 6.12232C17.2072 6.3176 16.9423 6.42731 16.6661 6.42731C16.3899 6.42731 16.125 6.3176 15.9297 6.12232L13.6672 3.86086C13.0811 3.27502 12.2864 2.94591 11.4578 2.94591C10.6291 2.94591 9.83443 3.27502 9.24841 3.86086L5.51299 7.59628C5.36736 7.74196 5.26819 7.92755 5.22801 8.12958C5.18784 8.33162 5.20847 8.54103 5.28729 8.73134C5.36611 8.92165 5.49959 9.08432 5.67085 9.19878C5.84211 9.31324 6.04346 9.37436 6.24945 9.37441Z" fill="white"/>
</g>
<defs>
<linearGradient id="paint0_linear_227_350" x1="27.9829" y1="0" x2="27.9829" y2="55.9658" gradientUnits="userSpaceOnUse">
<stop stop-color="#91F045"/>
<stop offset="1" stop-color="#233019"/>
</linearGradient>
</defs>
</svg>
